<?xml version="1.0" encoding="utf-8"?>
<!-- Generator: Adobe Illustrator 16.0.3, SVG Export Plug-In . SVG Version: 6.00 Build 0)  -->
<!DOCTYPE svg PUBLIC "-//W3C//DTD SVG 1.1//EN" "http://www.w3.org/Graphics/SVG/1.1/DTD/svg11.dtd">
<svg version="1.1" xmlns="http://www.w3.org/2000/svg" xmlns:xlink="http://www.w3.org/1999/xlink" x="0px" y="0px"
	 width="405.74px" height="55.6px" viewBox="0 0 405.74 55.6" enable-background="new 0 0 405.74 55.6" xml:space="preserve">
<g id="Layer_2" display="none">
	
		<rect x="-370.958" y="-661.025" display="inline" fill="#1F5182" stroke="#FFFFFF" stroke-miterlimit="10" width="1031" height="1040.495"/>
</g>
<g id="WP">
</g>
<g id="CV">
</g>
<g id="Connector">
</g>
<g id="CLOUD">
	<g>
		<path fill="#FFFFFF" d="M82.18,11.561c0,3.261-0.44,4.421-4.441,4.501l-3.441,0.06c-0.5,0-0.98,0.021-1.48,0.021
			c-1,0-1.98-0.04-2.96-0.14c-2.34-0.24-3.421-1.48-3.561-3.821c-0.06-0.841-0.08-1.7-0.08-2.54c0-1.301,0-2.641,0.24-3.922
			c0.48-2.42,1.88-2.92,4.121-3.08c1.2-0.12,2.44-0.12,3.661-0.12c0.64,0,1.28-0.021,1.92-0.021c1.16,0,2.321,0.041,3.461,0.281
			c2.18,0.439,2.32,2.279,2.4,4.12h-1.6v-0.12c0-0.76-0.02-1.92-0.68-2.34c-0.74-0.48-3.021-0.521-4.501-0.521
			c-1.46,0-2.921,0-4.381,0.12c-2.3,0.199-2.62,0.561-2.86,2.78c-0.1,1.12-0.1,2.261-0.1,3.381c0,2.841,0,4.461,3.221,4.461
			c1.04,0.021,2.081,0.04,3.121,0.04l2.981-0.04c2.18-0.06,3.28-0.181,3.28-2.561v-0.54H82.18z"/>
		<path fill="#FFFFFF" d="M86.077,13.58l-1.36,2.401h-1.521l6.307-10.677h1.729l6.354,10.677h-1.489l-1.393-2.401H86.077z
			 M90.366,6.25l-3.681,6.258h7.411L90.366,6.25z"/>
		<path fill="#FFFFFF" d="M109.137,8.266c0-0.56-0.064-1.296-0.656-1.568c-0.721-0.352-2.433-0.367-3.49-0.367h-0.448
			c-0.992,0-3.025,0.063-3.921,0.464c-0.592,0.256-0.704,0.896-0.704,1.488c0,1.393,0.88,1.633,2.097,1.681
			c0.384,0.032,0.784,0.032,1.168,0.032c0.833,0,1.681-0.017,2.513-0.017c0.736,0,1.488,0.017,2.225,0.097
			c1.969,0.208,2.785,0.864,2.785,2.881c0,1.185-0.256,2.129-1.424,2.642c-0.993,0.447-2.625,0.48-3.922,0.48h-0.848
			c-1.072,0-2.177-0.017-3.25-0.16c-2.241-0.289-2.689-1.057-2.689-3.266h1.296v0.224c0.016,0.849,0.016,1.521,0.944,1.793
			c0.977,0.272,2.721,0.288,3.762,0.288c1.008,0,2.033-0.048,3.025-0.176c1.216-0.145,1.761-0.576,1.761-1.825
			c0-1.648-0.865-1.745-2.353-1.776l-2.449-0.032c-0.96-0.017-1.921-0.017-2.865-0.08c-1.856-0.112-3.137-0.576-3.137-2.528
			c0-1.297,0.336-2.401,1.633-2.898c1.136-0.416,3.201-0.447,4.434-0.447c1.041,0,2.113,0.031,3.153,0.144
			c1.873,0.192,2.657,1.089,2.657,2.929H109.137z"/>
		<path fill="#FFFFFF" d="M114.525,9.915h8.948v1.072h-8.948v3.922h9.396v1.072h-10.692V5.305h10.58v1.089h-9.284V9.915z"/>
		<path fill="#FFFFFF" d="M150.593,2.639h1.8l-6.361,13.343h-2.24L138.57,4.199l-5.281,11.782h-2.201l-6.361-13.343h1.821
			l5.621,11.862l5.281-11.862h2.22l5.261,11.862L150.593,2.639z"/>
		<path fill="#FFFFFF" d="M154.688,13.58l-1.359,2.401h-1.521l6.307-10.677h1.729l6.355,10.677h-1.489l-1.393-2.401H154.688z
			 M158.978,6.25l-3.681,6.258h7.41L158.978,6.25z"/>
		<path fill="#FFFFFF" d="M176.051,5.305c2.401,0,3.617,0.545,3.617,3.17c0,1.889-0.367,2.449-2.272,2.721
			c1.233,0.16,2.081,0.48,2.081,1.889v2.897h-1.28v-2.369c0-1.648-0.688-1.952-2.257-1.952h-7.283v4.321h-1.297V5.305H176.051z
			 M175.811,10.588c1.809,0,2.514-0.385,2.514-2.193c0-1.793-0.912-2.001-2.545-2.001h-7.123v4.194H175.811z"/>
		<path fill="#FFFFFF" d="M183.52,9.915h8.948v1.072h-8.948v3.922h9.396v1.072h-10.692V5.305h10.58v1.089h-9.284V9.915z"/>
	</g>
	<g>
		<path fill="#51A6D8" d="M85.363,31.88c0,3.913-0.528,5.305-5.329,5.401l-4.128,0.071c-0.6,0-1.176,0.024-1.776,0.024
			c-1.2,0-2.376-0.049-3.552-0.168c-2.808-0.289-4.104-1.776-4.272-4.585c-0.072-1.008-0.096-2.04-0.096-3.048
			c0-1.561,0-3.168,0.288-4.705c0.576-2.904,2.256-3.504,4.944-3.695c1.44-0.145,2.929-0.145,4.393-0.145
			c0.768,0,1.536-0.023,2.304-0.023c1.392,0,2.784,0.047,4.152,0.336c2.616,0.527,2.784,2.736,2.88,4.943h-1.92v-0.144
			c0-0.912-0.024-2.304-0.816-2.808c-0.888-0.576-3.625-0.625-5.4-0.625c-1.752,0-3.504,0-5.256,0.145
			c-2.76,0.24-3.145,0.672-3.433,3.336c-0.12,1.344-0.12,2.713-0.12,4.057c0,3.408,0,5.353,3.864,5.353
			c1.248,0.024,2.496,0.048,3.744,0.048l3.576-0.048c2.616-0.072,3.937-0.216,3.937-3.072V31.88H85.363z"/>
		<path fill="#51A6D8" d="M100.992,35.844v1.341H88.83V23.842h1.621v12.002H100.992z"/>
		<path fill="#51A6D8" d="M103.269,26.603c0.54-2.36,2.321-2.801,4.461-2.86c1.96-0.041,3.941-0.041,5.901-0.041
			c5.541,0,6.501,0.841,6.501,6.281c0,1.201,0,2.401-0.14,3.602c-0.28,2.561-1.52,3.44-4.081,3.641c-1.101,0.1-2.201,0.1-3.301,0.1
			h-2.981c-0.94,0-1.88-0.02-2.82-0.119c-1.14-0.141-2.361-0.44-3.021-1.48c-0.8-1.301-0.8-3.602-0.8-5.102
			C102.989,29.283,102.989,27.902,103.269,26.603z M104.669,31.543c0,2.9,0.08,4.241,3.401,4.301l3.44,0.061h1.24
			c1.081,0,2.181-0.02,3.261-0.12c2.121-0.22,2.401-1.521,2.401-3.4c0.02-0.921,0.04-1.821,0.04-2.741
			c0-1.199-0.04-2.881-0.561-3.641c-0.22-0.32-0.6-0.54-0.96-0.641c-0.7-0.199-1.5-0.219-2.241-0.219l-3.141-0.021l-3.101,0.06
			c-2.88,0.041-3.641,0.36-3.721,3.381l-0.06,2V31.543z"/>
		<path fill="#51A6D8" d="M139.012,23.861v9.202c0,4.081-1.681,4.142-5.401,4.241c-0.88,0.02-1.78,0.02-2.681,0.02
			c-1.26,0-2.541-0.02-3.821-0.06c-2.621-0.101-3.801-1.08-3.801-3.721v-9.683h1.621v9.502c0,2.301,1.08,2.461,3.181,2.501
			l2.86,0.04l3.101-0.061c2.221-0.06,3.321-0.18,3.321-2.62v-0.3v-9.063H139.012z"/>
		<path fill="#51A6D8" d="M153.771,23.861c4.6,0,5.301,2.281,5.301,6.462c0,1.72-0.12,4.401-1.4,5.722
			c-1.121,1.119-2.921,1.14-4.441,1.14h-0.16h-10.442V23.861H153.771z M153.25,35.844c4.082,0,4.142-2.1,4.142-5.5
			c0-3.241-0.22-5.142-3.981-5.142h-9.161v10.642H153.25z"/>
		<path fill="#51A6D8" d="M171.256,27.607l-1.104-1.248l6.648-5.184h2.473v16.009h-1.896V22.711L171.256,27.607z"/>
		<path fill="#51A6D8" d="M188.248,22.832v-1.656h18.049v2.352l-11.928,13.657h-2.593l12.625-14.353H188.248z"/>
		<path fill="#51A6D8" d="M213.256,34.568v2.616h-2.399v-2.616H213.256z"/>
		<path fill="#51A6D8" d="M217.576,24.728c0.527-2.736,2.064-3.48,4.656-3.624c1.512-0.072,3.024-0.072,4.536-0.072
			c1.729,0,3.48,0.023,5.208,0.12c2.281,0.168,3.48,1.704,3.77,3.864c0.191,1.536,0.239,3.072,0.239,4.633
			c0,4.704-0.048,7.68-5.904,7.68c-1.2,0-2.376,0.024-3.576,0.024l-3.769-0.048c-2.28,0-4.584-0.648-5.064-3.217
			c-0.313-1.535-0.359-3.145-0.359-4.704C217.313,27.943,217.313,26.144,217.576,24.728z M219.496,32.984
			c0.191,2.28,1.704,2.592,3.672,2.641l3.408,0.047l3.553-0.071c2.041,0,3.36-0.192,3.672-2.448
			c0.145-1.368,0.192-2.736,0.192-4.104c0-1.224-0.024-3.265-0.312-4.417c-0.457-1.655-1.92-1.775-3.385-1.824l-3.528-0.096
			l-3.479,0.072c-1.945,0.049-3.529,0.023-3.793,2.641c-0.145,1.32-0.191,2.615-0.191,3.936
			C219.305,30.561,219.376,31.784,219.496,32.984z"/>
		<path fill="#51A6D8" d="M237.736,24.728c0.527-2.736,2.064-3.48,4.656-3.624c1.512-0.072,3.024-0.072,4.536-0.072
			c1.729,0,3.48,0.023,5.208,0.12c2.281,0.168,3.48,1.704,3.77,3.864c0.191,1.536,0.239,3.072,0.239,4.633
			c0,4.704-0.048,7.68-5.904,7.68c-1.2,0-2.376,0.024-3.576,0.024l-3.769-0.048c-2.28,0-4.584-0.648-5.064-3.217
			c-0.313-1.535-0.359-3.145-0.359-4.704C237.473,27.943,237.473,26.144,237.736,24.728z M239.656,32.984
			c0.191,2.28,1.704,2.592,3.672,2.641l3.408,0.047l3.553-0.071c2.041,0,3.36-0.192,3.672-2.448
			c0.145-1.368,0.192-2.736,0.192-4.104c0-1.224-0.024-3.265-0.312-4.417c-0.457-1.655-1.92-1.775-3.385-1.824l-3.528-0.096
			l-3.479,0.072c-1.945,0.049-3.529,0.023-3.793,2.641c-0.145,1.32-0.191,2.615-0.191,3.936
			C239.465,30.561,239.536,31.784,239.656,32.984z"/>
	</g>
	<g>
		<path fill="#1A1F2D" d="M78.998,49.676c0,2.609-0.352,3.537-3.553,3.602l-2.753,0.048c-0.4,0-0.785,0.017-1.185,0.017
			c-0.8,0-1.584-0.032-2.369-0.112c-1.873-0.192-2.737-1.185-2.849-3.058c-0.048-0.672-0.064-1.36-0.064-2.033
			c0-1.039,0-2.112,0.192-3.137c0.384-1.937,1.505-2.337,3.297-2.465c0.96-0.096,1.953-0.096,2.929-0.096
			c0.512,0,1.024-0.017,1.537-0.017c0.929,0,1.857,0.032,2.769,0.224c1.745,0.354,1.857,1.825,1.921,3.298h-1.28v-0.096
			c0-0.608-0.016-1.536-0.544-1.873c-0.592-0.384-2.417-0.416-3.602-0.416c-1.168,0-2.337,0-3.505,0.097
			c-1.841,0.159-2.097,0.447-2.289,2.225c-0.08,0.896-0.08,1.809-0.08,2.705c0,2.272,0,3.568,2.577,3.568
			c0.833,0.017,1.665,0.033,2.497,0.033l2.385-0.033c1.745-0.047,2.625-0.144,2.625-2.049v-0.432H78.998z"/>
		<path fill="#1A1F2D" d="M81.983,51.414l-1.02,1.799h-1.139l4.725-7.999h1.295l4.761,7.999h-1.115l-1.043-1.799H81.983z
			 M85.198,45.922l-2.759,4.689h5.553L85.198,45.922z"/>
		<path fill="#1A1F2D" d="M99.271,47.433c0-0.42-0.048-0.972-0.492-1.175c-0.54-0.265-1.823-0.276-2.614-0.276H95.83
			c-0.744,0-2.267,0.048-2.938,0.348c-0.444,0.192-0.528,0.672-0.528,1.115c0,1.044,0.66,1.224,1.571,1.259
			c0.288,0.025,0.588,0.025,0.875,0.025c0.624,0,1.259-0.013,1.883-0.013c0.552,0,1.116,0.013,1.667,0.071
			c1.475,0.156,2.087,0.648,2.087,2.16c0,0.887-0.192,1.594-1.068,1.979c-0.743,0.336-1.967,0.359-2.938,0.359h-0.636
			c-0.804,0-1.631-0.012-2.435-0.119c-1.679-0.217-2.015-0.792-2.015-2.447h0.972v0.168c0.012,0.636,0.012,1.139,0.708,1.344
			c0.731,0.203,2.039,0.215,2.818,0.215c0.756,0,1.523-0.035,2.267-0.131c0.912-0.108,1.319-0.432,1.319-1.367
			c0-1.236-0.647-1.309-1.763-1.332l-1.835-0.023c-0.72-0.012-1.439-0.012-2.147-0.061c-1.391-0.084-2.351-0.432-2.351-1.895
			c0-0.972,0.251-1.799,1.223-2.171c0.852-0.312,2.398-0.336,3.322-0.336c0.779,0,1.583,0.024,2.363,0.108
			c1.403,0.144,1.991,0.814,1.991,2.194H99.271z"/>
		<path fill="#1A1F2D" d="M103.319,48.668h6.704v0.803h-6.704v2.939h7.04v0.803h-8.012v-7.999h7.928v0.815h-6.956V48.668z"/>
		<path fill="#1A1F2D" d="M131.656,42.537h1.44l-5.09,10.676h-1.793l-4.178-9.428l-4.226,9.428h-1.761l-5.09-10.676h1.457
			l4.498,9.492l4.226-9.492h1.776l4.21,9.492L131.656,42.537z"/>
		<path fill="#1A1F2D" d="M134.799,51.414l-1.02,1.799h-1.139l4.725-7.999h1.295l4.761,7.999h-1.115l-1.043-1.799H134.799z
			 M138.013,45.922l-2.759,4.689h5.553L138.013,45.922z"/>
		<path fill="#1A1F2D" d="M150.816,45.214c1.799,0,2.71,0.407,2.71,2.374c0,1.416-0.276,1.836-1.703,2.039
			c0.923,0.12,1.56,0.36,1.56,1.416v2.17h-0.96v-1.774c0-1.235-0.516-1.464-1.691-1.464h-5.457v3.238h-0.972v-7.999H150.816z
			 M150.636,49.172c1.355,0,1.884-0.288,1.884-1.644c0-1.343-0.684-1.499-1.908-1.499h-5.337v3.143H150.636z"/>
		<path fill="#1A1F2D" d="M156.423,48.668h6.704v0.803h-6.704v2.939h7.04v0.803h-8.012v-7.999h7.928v0.815h-6.956V48.668z"/>
		<path fill="#1A1F2D" d="M179.484,45.498c0-0.561-0.063-1.297-0.656-1.568c-0.72-0.352-2.433-0.368-3.489-0.368h-0.448
			c-0.992,0-3.025,0.063-3.922,0.464c-0.592,0.256-0.703,0.896-0.703,1.488c0,1.393,0.88,1.633,2.096,1.682
			c0.385,0.031,0.785,0.031,1.169,0.031c0.833,0,1.681-0.016,2.513-0.016c0.736,0,1.488,0.016,2.225,0.096
			c1.969,0.209,2.785,0.865,2.785,2.881c0,1.186-0.256,2.129-1.424,2.642c-0.992,0.448-2.625,0.48-3.922,0.48h-0.848
			c-1.072,0-2.178-0.017-3.25-0.16c-2.24-0.288-2.689-1.057-2.689-3.265h1.297v0.223c0.016,0.85,0.016,1.521,0.944,1.793
			c0.977,0.272,2.722,0.289,3.762,0.289c1.009,0,2.032-0.049,3.025-0.177c1.216-0.144,1.761-0.576,1.761-1.825
			c0-1.648-0.865-1.744-2.354-1.775l-2.449-0.033c-0.96-0.016-1.92-0.016-2.865-0.08c-1.855-0.111-3.137-0.576-3.137-2.528
			c0-1.297,0.336-2.401,1.633-2.897c1.137-0.416,3.201-0.448,4.434-0.448c1.041,0,2.113,0.032,3.153,0.144
			c1.873,0.193,2.657,1.09,2.657,2.93H179.484z"/>
		<path fill="#1A1F2D" d="M192.534,45.226v5.517c0,2.447-1.007,2.483-3.238,2.543c-0.528,0.012-1.067,0.012-1.606,0.012
			c-0.756,0-1.523-0.012-2.291-0.035c-1.571-0.061-2.279-0.648-2.279-2.23v-5.806h0.972v5.697c0,1.379,0.647,1.476,1.907,1.499
			l1.715,0.023l1.859-0.035c1.33-0.036,1.99-0.108,1.99-1.571v-0.181v-5.433H192.534z"/>
		<path fill="#1A1F2D" d="M201.332,45.214c1.703,0,2.375,0.516,2.375,2.278c0,0.624-0.049,1.596-0.504,2.063
			c-0.492,0.504-1.271,0.528-1.932,0.528h-5.601v3.13h-0.972v-7.999H201.332z M200.684,49.279c1.488,0,2.016-0.132,2.016-1.738
			c0-1.08-0.336-1.512-1.463-1.512h-5.565v3.25H200.684z"/>
		<path fill="#1A1F2D" d="M212.023,45.214c1.703,0,2.375,0.516,2.375,2.278c0,0.624-0.048,1.596-0.504,2.063
			c-0.492,0.504-1.271,0.528-1.931,0.528h-5.601v3.13h-0.973v-7.999H212.023z M211.376,49.279c1.487,0,2.015-0.132,2.015-1.738
			c0-1.08-0.336-1.512-1.463-1.512h-5.564v3.25H211.376z"/>
		<path fill="#1A1F2D" d="M216.012,46.869c0.323-1.416,1.391-1.68,2.674-1.715c1.176-0.024,2.363-0.024,3.538-0.024
			c3.322,0,3.897,0.503,3.897,3.767c0,0.719,0,1.438-0.084,2.158c-0.168,1.535-0.911,2.063-2.446,2.183
			c-0.659,0.06-1.319,0.06-1.979,0.06h-1.787c-0.563,0-1.128-0.012-1.691-0.071c-0.684-0.084-1.415-0.265-1.811-0.888
			c-0.479-0.779-0.479-2.158-0.479-3.059C215.844,48.477,215.844,47.648,216.012,46.869z M216.851,49.831
			c0,1.739,0.048,2.543,2.039,2.579l2.063,0.035h0.743c0.647,0,1.308-0.012,1.954-0.071c1.271-0.132,1.439-0.911,1.439-2.039
			c0.012-0.552,0.024-1.091,0.024-1.644c0-0.719-0.024-1.727-0.336-2.182c-0.132-0.192-0.36-0.324-0.575-0.385
			c-0.42-0.119-0.9-0.132-1.344-0.132l-1.883-0.012l-1.859,0.036c-1.727,0.023-2.183,0.216-2.23,2.027l-0.036,1.199V49.831z"/>
		<path fill="#1A1F2D" d="M234.632,45.214c1.799,0,2.71,0.407,2.71,2.374c0,1.416-0.275,1.836-1.703,2.039
			c0.924,0.12,1.56,0.36,1.56,1.416v2.17h-0.96v-1.774c0-1.235-0.516-1.464-1.69-1.464h-5.457v3.238h-0.972v-7.999H234.632z
			 M234.451,49.172c1.355,0,1.884-0.288,1.884-1.644c0-1.343-0.684-1.499-1.907-1.499h-5.337v3.143H234.451z"/>
		<path fill="#1A1F2D" d="M243.465,53.213h-0.971v-7.184h-4.03v-0.815h9.056v0.815h-4.055V53.213z"/>
	</g>
	<g>
		<path fill="#FFFFFF" d="M53.962,21.926c-0.535-2.519-2.069-4.83-4.327-6.812c-0.585-2.472-1.248-5.269-2.912-6.989
			c-1.609-1.665-3.807-1.007-5,0c-0.509-0.192-1.198-0.322-1.862-0.195c-1.198,0.227-1.765,0.687-2.213,1.413
			c-2.561-0.614-5.302-0.992-8.141-1.086c-5.327-0.175-9.966,1.075-13.591,2.807C8.69,10.643,3.207,13.003,3.719,17.312
			c0.522,4.402,5.173,8.926,11.698,12.022c-2.083,5.265,2.877,8.558,10.781,6.527c2.041-0.523,4.026-1.243,5.893-2.105
			c0.053,0.006,0.105,0.012,0.158,0.017C44.637,34.664,55.477,29.02,53.962,21.926z M45.26,28.994l-2.217,1.157
			c-1.101-2.468-6.397-3.392-11.386,2.091c-4.061,4.463-16.445,3.694-12.606-2.281c-6.67-2.899-10.989-7.688-11.005-11.675
			c-0.007-2.302,1.268-3.919,3.593-4.75l1.962-0.474c2.51-0.377,5.643-0.437,9.549,0.521c5.792,1.42,11.509,3.892,15.001,6.853
			c-0.025-0.346,0.016-0.065-0.062-0.401c-3.438-3.152-8.968-6.035-15.104-7.763c-2.296-0.645-4.554-1.034-6.673-1.186
			c3.38-1.401,7.6-2.184,12.146-2.034c11.273,0.372,19.69,6.473,20.354,12.815C49.12,24.835,47.854,27.277,45.26,28.994z"/>
	</g>
</g>
<g id="AUDIT">
</g>
<g id="FIN">
</g>
<g id="TIME">
</g>
<g id="GASB">
</g>
<g id="CW">
</g>
<g id="CW_Hor">
</g>
<g id="Lines" display="none">
</g>
</svg>
