<svg xmlns="http://www.w3.org/2000/svg" version="1.1" x="0px" y="0px" viewBox="0 0 32 32" enable-background="new 0 0 32 32" xml:space="preserve">
  <linearGradient id="qbits-gradient" gradientUnits="userSpaceOnUse" x1="16" y1="-4.938556e-010" x2="16" y2="32">
    <stop offset="0" stop-color="#44A170"></stop>
    <stop offset="1" stop-color="#E0E09D"></stop>
  </linearGradient>
  <path fill="url(#qbits-gradient)" d="M32 27c0 2.8-2.2 5-5 5H5c-2.8 0-5-2.2-5-5V5c0-2.8 2.2-5 5-5h22c2.8 0 5 2.2 5 5V27z"></path>
  <polygon fill="#FFFFFF" points="9 4 9 4 9 4 "></polygon>
  <line fill="none" stroke="#FFFFFF" stroke-linecap="round" stroke-miterlimit="10" x1="9" y1="25.5" x2="27" y2="25.5"></line>
  <rect x="10" y="17" fill="#FFFFFF" width="2" height="6"></rect>
  <rect x="19" y="13" fill="#FFFFFF" width="2" height="10"></rect>
  <rect x="16" y="5" fill="#FFFFFF" width="2" height="18"></rect>
  <rect x="13" y="10" fill="#FFFFFF" width="2" height="13"></rect>
  <rect x="22" y="10" fill="#FFFFFF" width="2" height="13"></rect>
  <line fill="none" stroke="#FFFFFF" stroke-linecap="round" stroke-miterlimit="10" x1="6.5" y1="23" x2="6.5" y2="5"></line>
  <circle fill="none" stroke="#FFFFFF" stroke-miterlimit="10" cx="6.5" cy="25.5" r="2.5"></circle>
  <rect x="25" y="16" fill="#FFFFFF" width="2" height="7"></rect>
</svg>