
<svg enable-background="new 0 0 32 32" version="1.1" viewBox="0 0 32 32" x="0px" xml:space="preserve" xmlns="http://www.w3.org/2000/svg" y="0px">
  <linearGradient gradientUnits="userSpaceOnUse" id="qbits-gradient" x1="16" x2="16" y1="-4.938556e-010" y2="32">
    <stop offset="0" stop-color="#44A170"/>
    <stop offset="1" stop-color="#E0E09D"/>
  </linearGradient>
  <path d="M32 27c0 2.8-2.2 5-5 5H5c-2.8 0-5-2.2-5-5V5c0-2.8 2.2-5 5-5h22c2.8 0 5 2.2 5 5V27z" fill="url(#qbits-gradient)"/>
  <polygon fill="#FFFFFF" points="9 4 9 4 9 4 "/>
  <line fill="none" stroke="#FFFFFF" stroke-linecap="round" stroke-miterlimit="10" x1="9" x2="27" y1="25.5" y2="25.5"/>
  <rect fill="#FFFFFF" height="6" width="2" x="10" y="17"/>
  <rect fill="#FFFFFF" height="10" width="2" x="19" y="13"/>
  <rect fill="#FFFFFF" height="18" width="2" x="16" y="5"/>
  <rect fill="#FFFFFF" height="13" width="2" x="13" y="10"/>
  <rect fill="#FFFFFF" height="13" width="2" x="22" y="10"/>
  <line fill="none" stroke="#FFFFFF" stroke-linecap="round" stroke-miterlimit="10" x1="6.5" x2="6.5" y1="23" y2="5"/>
  <circle cx="6.5" cy="25.5" fill="none" r="2.5" stroke="#FFFFFF" stroke-miterlimit="10"/>
  <rect fill="#FFFFFF" height="7" width="2" x="25" y="16"/>
</svg>