<?xml version="1.0" encoding="utf-8"?>
<!-- Generator: Adobe Illustrator 18.0.0, SVG Export Plug-In . SVG Version: 6.00 Build 0)  -->
<!DOCTYPE svg PUBLIC "-//W3C//DTD SVG 1.1//EN" "http://www.w3.org/Graphics/SVG/1.1/DTD/svg11.dtd"><svg enable-background="new 0 0 32 32" id="Layer_1" version="1.1" viewBox="0 0 32 32" x="0px" xml:space="preserve" xmlns="http://www.w3.org/2000/svg" xmlns:xlink="http://www.w3.org/1999/xlink" y="0px">
<linearGradient gradientUnits="userSpaceOnUse" id="SVGID_1_" x1="16" x2="16" y1="-4.938556e-010" y2="32">
	<stop offset="0" style="stop-color:#D58156"/>
	<stop offset="1" style="stop-color:#F2DF61"/>
</linearGradient>
<path d="M32,27c0,2.8-2.2,5-5,5H5c-2.8,0-5-2.2-5-5V5c0-2.8,2.2-5,5-5h22c2.8,0,5,2.2,5,5V27z" fill="url(#SVGID_1_)"/>
<polygon fill="#FFFFFF" points="9,4 9,4 9,4 "/>
<line fill="none" stroke="#FFFFFF" stroke-miterlimit="10" x1="11" x2="14.5" y1="9.5" y2="9.5"/>
<line fill="none" stroke="#FFFFFF" stroke-miterlimit="10" x1="11" x2="16.5" y1="12.5" y2="12.5"/>
<line fill="none" stroke="#FFFFFF" stroke-miterlimit="10" x1="11" x2="20" y1="15.5" y2="15.5"/>
<line fill="none" stroke="#FFFFFF" stroke-miterlimit="10" x1="11" x2="20" y1="18.5" y2="18.5"/>
<circle cx="20.5" cy="7.5" fill="none" r="4" stroke="#FFFFFF" stroke-miterlimit="10"/>
<path d="M14.5,5.5h-6v21h14v-13" fill="none" stroke="#FFFFFF" stroke-miterlimit="10"/>
<polyline fill="none" points="20.5,5.5 20.5,7.5 22.5,7.5 " stroke="#FFFFFF" stroke-miterlimit="10"/>
</svg>