<?xml version="1.0" encoding="utf-8"?>
<!-- Generator: Adobe Illustrator 22.0.0, SVG Export Plug-In . SVG Version: 6.00 Build 0)  -->
<!DOCTYPE svg PUBLIC "-//W3C//DTD SVG 1.1//EN" "http://www.w3.org/Graphics/SVG/1.1/DTD/svg11.dtd"><svg id="Layer_1" style="enable-background:new 0 0 430.4 67.9;" version="1.1" viewBox="0 0 430.4 67.9" x="0px" xml:space="preserve" xmlns="http://www.w3.org/2000/svg" xmlns:xlink="http://www.w3.org/1999/xlink" y="0px">
<style type="text/css">
	.st0{fill:#FFFFFF;}
</style>
<g>
	<path class="st0" d="M92.7,51.7c1.8-1.8,28-28,28-28h19.9l-29.7,29.6c-2.6,2.6-6.2,4.1-9.8,4.1c0,0-17.7,0-28,0   C86.4,56.6,91,53.5,92.7,51.7z"/>
	<path class="st0" d="M67.7,51.7c1.8-1.8,28-28,28-28h19.9L85.9,53.3c-2.6,2.6-6.2,4.1-9.8,4.1c0,0-17.7,0-28,0   C61.4,56.6,65.9,53.5,67.7,51.7z"/>
	<path class="st0" d="M51,57.4H36.9l33.7-33.7h19.9L60.8,53.3C58.2,55.9,54.7,57.4,51,57.4z"/>
	<path class="st0" d="M99.8,62.5c-45.7,2.1-83-14.1-78.9-30.3C24.9,16.6,56.2,2,99.8,2c25.2,0,51.3,4.5,68.8,11.6   C151.5,5.4,124.3,0,93.7,0C42,0,1.8,15.3,0.1,34c-1.8,20,41.9,34,93.6,34c40,0,82.4-9.4,92.8-26C167.8,57.4,136.6,60.8,99.8,62.5z"/>
	<path class="st0" d="M427.4,41.4c-1.6,0-3,1.3-3,3c0,1.6,1.3,3,3,3c1.6,0,3-1.3,3-3C430.4,42.7,429,41.4,427.4,41.4z    M427.4,46.8c-1.4,0-2.5-1.1-2.5-2.5c0-1.4,1.1-2.5,2.5-2.5c1.4,0,2.5,1.1,2.5,2.5C429.9,45.7,428.8,46.8,427.4,46.8z M428.2,44.7   c-0.1-0.1-0.2-0.2-0.3-0.3c0.3,0,0.5-0.1,0.6-0.3c0.1-0.2,0.2-0.3,0.2-0.6c0-0.2,0-0.3-0.1-0.5c-0.1-0.1-0.2-0.2-0.4-0.3   c-0.1-0.1-0.4-0.1-0.7-0.1h-1.3v3.1h0.6v-1.3h0.1c0.1,0,0.2,0,0.3,0c0.1,0,0.1,0.1,0.2,0.1c0.1,0.1,0.2,0.2,0.3,0.5l0.5,0.7h0.7   l-0.4-0.6C428.4,45,428.3,44.8,428.2,44.7z M427.3,44h-0.5v-0.8h0.5c0.3,0,0.4,0,0.5,0c0.1,0,0.2,0.1,0.2,0.1   c0.1,0.1,0.1,0.1,0.1,0.3c0,0.1,0,0.2-0.1,0.2c0,0.1-0.1,0.1-0.2,0.1C427.7,44,427.6,44,427.3,44z" id="_x38_"/>
	<g>
		<path class="st0" d="M228.7,35.6c0,3.9-0.7,6.2-2.2,7.1c-1.5,0.9-5.4,1.3-11.7,1.3c-6.5,0-10.5-0.6-11.8-1.9    c-1.4-1.2-2.1-4.7-2.1-10.5c0-5.8,0.8-9.3,2.3-10.6c1.5-1.2,5.9-1.9,13-1.9c5.6,0,9.1,0.4,10.4,1.3c1.3,0.9,2,3.1,2,6.7h-3.1    c0-2.4-0.6-3.9-1.7-4.5c-1.2-0.6-4.2-0.8-9-0.8c-5.2,0-8.3,0.5-9.4,1.4c-1,0.9-1.5,3.7-1.5,8.4c0,4.7,0.5,7.4,1.5,8.3    c1,0.9,4.1,1.4,9.4,1.4c4.9,0,8-0.3,9.1-0.9c1.2-0.6,1.7-2.2,1.7-4.9H228.7z"/>
		<path class="st0" d="M244.4,26L244.4,26l6.7,11.4h-13.4L244.4,26z M231.2,43.8h1.4h1.4l2.6-4.4h15.7l2.6,4.4h1.4h1.4L246,24.1    h-1.6h-1.7L231.2,43.8z"/>
		<path class="st0" d="M279,29.6c0-1.6-0.5-2.6-1.4-3c-0.9-0.4-3.3-0.6-7.2-0.6c-3.5,0-5.9,0.2-6.9,0.6c-1.1,0.4-1.6,1.4-1.6,2.8    c0,1.4,0.6,2.2,1.7,2.7c1.1,0.4,3.4,0.6,7,0.5c4.6-0.1,7.7,0.3,9.1,1c1.4,0.7,2.1,2.2,2.1,4.6c0,2.4-0.7,4-2.1,4.7    c-1.4,0.7-4.5,1.1-9.1,1.1c-4.7,0-7.8-0.4-9.2-1.2c-1.4-0.8-2.1-2.6-2.1-5.3h2.3c0,2,0.5,3.2,1.4,3.7c1,0.5,3.4,0.7,7.5,0.7    c3.7,0,6.1-0.2,7.2-0.7c1.1-0.5,1.7-1.4,1.7-2.9c0-1.4-0.6-2.4-1.7-2.8c-1.1-0.4-3.5-0.6-7.2-0.6c-4.6,0.1-7.5-0.2-8.9-0.9    c-1.4-0.7-2.1-2.1-2.1-4.4c0-2.3,0.7-3.9,2.1-4.6c1.4-0.7,4.3-1.1,8.8-1.1c4.6,0,7.5,0.4,8.9,1.1c1.3,0.7,2,2.3,2,4.7H279z"/>
		<path class="st0" d="M285.1,43.8V24.1h19.8v1.1v1.1h-17.3v6.4h16.3v1v1h-16.3v7h17.3v1.1v1.1H285.1z"/>
		<path class="st0" d="M316.9,43.8l-9.8-24.3h1.6h1.6l9,21.9l0,0l8.4-21.9h2h2l8.5,22h0l8.9-22h1.6h1.6l-9.9,24.3h-2.2h-2.2    l-8.3-21.2h0l-8,21.2h-2.3H316.9z"/>
		<path class="st0" d="M360.7,26L360.7,26l6.7,11.4h-13.4L360.7,26z M347.6,43.8h1.4h1.4l2.6-4.4h15.7l2.6,4.4h1.4h1.4l-11.5-19.7    h-1.6h-1.7L347.6,43.8z"/>
		<path class="st0" d="M379,26.3h12.4c2.3,0,3.7,0.2,4.4,0.7c0.6,0.5,0.9,1.5,0.9,3.1c0,1.6-0.3,2.7-1,3.1c-0.7,0.5-2.2,0.7-4.5,0.7    H379V26.3z M376.5,43.8h1.3h1.2v-7.7h13.5c1.7,0,2.7,0.3,3.2,0.9c0.5,0.6,0.7,2,0.7,4.1v2.7h1.2h1.3v-2.7c0-2.7-0.4-4.4-1.3-5.2    c-0.5-0.4-1.2-0.7-2.2-0.9c0.9-0.2,1.6-0.4,2.1-0.8c1-0.7,1.6-2.2,1.6-4.5c0-2.3-0.5-3.8-1.5-4.5c-1-0.7-3.1-1.1-6.3-1.1h-13.6    h-1.2V43.8z"/>
		<path class="st0" d="M402.7,43.8V24.1h19.8v1.1v1.1h-17.3v6.4h16.3v1v1h-16.3v7h17.3v1.1v1.1H402.7z"/>
	</g>
</g>
</svg>