<svg id="Layer_1" data-name="Layer 1" xmlns="http://www.w3.org/2000/svg" viewBox="0 0 275.99 25.42"><defs><style>.cls-1{fill:#717171;}.cls-2{fill:#5ea9d8;}</style></defs><title>CaseWare Cloud Logo</title><path class="cls-1" d="M40.38,79.62a.4.4,0,0,1,.29.12l.69.75A11.61,11.61,0,0,1,39.71,82a10.12,10.12,0,0,1-2,1.11,11.62,11.62,0,0,1-2.34.71,14.55,14.55,0,0,1-2.8.25,11.94,11.94,0,0,1-4.67-.89,10.47,10.47,0,0,1-3.65-2.53,11.45,11.45,0,0,1-2.37-4,15.09,15.09,0,0,1-.84-5.17,14.38,14.38,0,0,1,.87-5.1,11.72,11.72,0,0,1,2.43-4,10.77,10.77,0,0,1,3.75-2.57,12.42,12.42,0,0,1,4.82-.91,11.89,11.89,0,0,1,4.46.78,12,12,0,0,1,3.54,2.2l-.54.78a.48.48,0,0,1-.43.21,1.4,1.4,0,0,1-.68-.38,9,9,0,0,0-1.3-.84,11.07,11.07,0,0,0-2.07-.84,10.2,10.2,0,0,0-3-.38,10.55,10.55,0,0,0-4.07.76,9,9,0,0,0-3.17,2.19,10.06,10.06,0,0,0-2.07,3.47,14.62,14.62,0,0,0,0,9.24,10.14,10.14,0,0,0,2.07,3.46,8.93,8.93,0,0,0,3.11,2.17,9.9,9.9,0,0,0,3.87.75A14.21,14.21,0,0,0,35,82.33a9.18,9.18,0,0,0,1.9-.52A8.48,8.48,0,0,0,38.56,81,12.11,12.11,0,0,0,40,79.78l.17-.11A.38.38,0,0,1,40.38,79.62Z" transform="translate(-21.08 -58.63)"/><path class="cls-1" d="M44.85,68.94a10,10,0,0,1,2.84-2,7.92,7.92,0,0,1,3.38-.69,6.16,6.16,0,0,1,2.43.44,4.49,4.49,0,0,1,1.73,1.27,5.54,5.54,0,0,1,1,2,9.16,9.16,0,0,1,.35,2.61V83.75h-.66a.59.59,0,0,1-.64-.49L55.06,81a18.06,18.06,0,0,1-1.41,1.25,8.43,8.43,0,0,1-1.46.94,7.49,7.49,0,0,1-1.65.59A8.48,8.48,0,0,1,48.6,84a5.74,5.74,0,0,1-1.72-.26A4.34,4.34,0,0,1,45.4,83a3.87,3.87,0,0,1-1-1.38,4.78,4.78,0,0,1-.39-2,3.58,3.58,0,0,1,.62-2,5.11,5.11,0,0,1,2-1.63A13,13,0,0,1,50,74.8a29.77,29.77,0,0,1,5-.49v-1.8a5.78,5.78,0,0,0-1-3.68,3.68,3.68,0,0,0-3.06-1.29,5.78,5.78,0,0,0-2.12.35,7.52,7.52,0,0,0-1.48.76,9.37,9.37,0,0,0-1,.76,1.07,1.07,0,0,1-.64.35.52.52,0,0,1-.31-.09.77.77,0,0,1-.21-.23ZM55,75.41a32.53,32.53,0,0,0-4.24.39,12.26,12.26,0,0,0-2.93.82,4.38,4.38,0,0,0-1.71,1.24,2.62,2.62,0,0,0-.55,1.64,3.61,3.61,0,0,0,.29,1.5,2.93,2.93,0,0,0,.76,1,3,3,0,0,0,1.1.6,4.43,4.43,0,0,0,1.3.19,7.39,7.39,0,0,0,1.85-.22A6.86,6.86,0,0,0,52.42,82a7.66,7.66,0,0,0,1.34-.93q.62-.54,1.23-1.16Z" transform="translate(-21.08 -58.63)"/><path class="cls-1" d="M71.6,68.63a.44.44,0,0,1-.4.24.9.9,0,0,1-.49-.22,7.07,7.07,0,0,0-.79-.49,6.39,6.39,0,0,0-1.22-.49,6.26,6.26,0,0,0-1.77-.22,5.17,5.17,0,0,0-1.71.27,4.23,4.23,0,0,0-1.32.72,3.17,3.17,0,0,0-.84,1,2.81,2.81,0,0,0-.29,1.26,2.14,2.14,0,0,0,.42,1.35,3.61,3.61,0,0,0,1.08.92,8,8,0,0,0,1.53.66l1.76.55q.89.28,1.76.62a6.42,6.42,0,0,1,1.53.84A4,4,0,0,1,72,76.94a3.52,3.52,0,0,1,.42,1.77,5.47,5.47,0,0,1-.4,2.1,4.68,4.68,0,0,1-1.17,1.68,5.66,5.66,0,0,1-1.9,1.13,7.43,7.43,0,0,1-2.58.42,7.73,7.73,0,0,1-3.14-.58,8.8,8.8,0,0,1-2.36-1.52l.38-.59a.63.63,0,0,1,.2-.21.58.58,0,0,1,.3-.07.92.92,0,0,1,.55.28,6.1,6.1,0,0,0,.86.6,7.35,7.35,0,0,0,1.33.6,5.92,5.92,0,0,0,2,.28,5.61,5.61,0,0,0,1.92-.3,4,4,0,0,0,1.39-.82,3.43,3.43,0,0,0,.84-1.22A3.88,3.88,0,0,0,70.82,79a2.38,2.38,0,0,0-.42-1.44,3.56,3.56,0,0,0-1.09-1,7.62,7.62,0,0,0-1.53-.68L66,75.34q-.9-.28-1.76-.61a6.38,6.38,0,0,1-1.53-.83,4,4,0,0,1-1.09-1.22,3.54,3.54,0,0,1-.42-1.79,4.11,4.11,0,0,1,.4-1.77,4.49,4.49,0,0,1,1.14-1.49,5.59,5.59,0,0,1,1.79-1,7,7,0,0,1,2.38-.38,8.07,8.07,0,0,1,2.8.45A6.61,6.61,0,0,1,72,68.06Z" transform="translate(-21.08 -58.63)"/><path class="cls-1" d="M77.45,74.44v.33a11.69,11.69,0,0,0,.45,3.42,7,7,0,0,0,1.28,2.47,5.29,5.29,0,0,0,2,1.5,6.66,6.66,0,0,0,2.64.5,7.9,7.9,0,0,0,2.25-.29,8.49,8.49,0,0,0,1.6-.64,8.88,8.88,0,0,0,1-.64,1.16,1.16,0,0,1,.55-.29.4.4,0,0,1,.35.17l.45.55a4.72,4.72,0,0,1-1.1,1,7.86,7.86,0,0,1-1.53.77,11.2,11.2,0,0,1-1.8.51,9.94,9.94,0,0,1-1.93.19,8.21,8.21,0,0,1-3.23-.62A6.83,6.83,0,0,1,78,81.57a8.16,8.16,0,0,1-1.6-2.89,12.46,12.46,0,0,1-.56-3.91,10.67,10.67,0,0,1,.53-3.42,7.83,7.83,0,0,1,1.53-2.7,7,7,0,0,1,2.44-1.78,8,8,0,0,1,3.29-.64,7.18,7.18,0,0,1,2.7.5,6.13,6.13,0,0,1,2.17,1.46,6.91,6.91,0,0,1,1.45,2.37,9.12,9.12,0,0,1,.53,3.23.92.92,0,0,1-.1.52.4.4,0,0,1-.35.14ZM89,73.38a7.41,7.41,0,0,0-.39-2.49A5.28,5.28,0,0,0,87.47,69a4.8,4.8,0,0,0-1.69-1.17,5.57,5.57,0,0,0-2.16-.41,6.49,6.49,0,0,0-2.39.42,5.23,5.23,0,0,0-1.83,1.2,6,6,0,0,0-1.24,1.87,8.71,8.71,0,0,0-.62,2.44Z" transform="translate(-21.08 -58.63)"/><path class="cls-1" d="M124.63,59.22l-7.72,24.53h-1.6l-7.25-21.29q-.14-.43-.24-.9-.1.47-.24.9l-7.27,21.29H98.74L91,59.22h1.47a.61.61,0,0,1,.64.47l6.19,20.16q.19.69.35,1.58.09-.45.17-.84a6.41,6.41,0,0,1,.21-.74L107,59.68a.74.74,0,0,1,.24-.33.65.65,0,0,1,.42-.14h.49a.6.6,0,0,1,.4.13.86.86,0,0,1,.24.34l6.94,20.16a6.43,6.43,0,0,1,.22.73q.1.4.18.83l.16-.82c.05-.26.11-.51.17-.74l6.19-20.16a.62.62,0,0,1,.23-.33.68.68,0,0,1,.42-.14Z" transform="translate(-21.08 -58.63)"/><path class="cls-1" d="M126.08,68.94a10,10,0,0,1,2.84-2,7.92,7.92,0,0,1,3.38-.69,6.16,6.16,0,0,1,2.43.44,4.49,4.49,0,0,1,1.73,1.27,5.54,5.54,0,0,1,1,2,9.16,9.16,0,0,1,.35,2.61V83.75h-.66a.59.59,0,0,1-.64-.49L136.29,81a18.06,18.06,0,0,1-1.41,1.25,8.43,8.43,0,0,1-1.46.94,7.49,7.49,0,0,1-1.65.59,8.48,8.48,0,0,1-1.94.21,5.74,5.74,0,0,1-1.72-.26,4.34,4.34,0,0,1-1.48-.8,3.87,3.87,0,0,1-1-1.38,4.78,4.78,0,0,1-.39-2,3.58,3.58,0,0,1,.62-2,5.11,5.11,0,0,1,2-1.63,13,13,0,0,1,3.42-1.11,29.77,29.77,0,0,1,5-.49v-1.8a5.78,5.78,0,0,0-1-3.68,3.68,3.68,0,0,0-3.06-1.29,5.78,5.78,0,0,0-2.12.35,7.52,7.52,0,0,0-1.48.76,9.37,9.37,0,0,0-1,.76,1.07,1.07,0,0,1-.64.35.52.52,0,0,1-.31-.09.77.77,0,0,1-.21-.23Zm10.14,6.47a32.53,32.53,0,0,0-4.24.39,12.26,12.26,0,0,0-2.93.82,4.38,4.38,0,0,0-1.71,1.24,2.62,2.62,0,0,0-.55,1.64,3.61,3.61,0,0,0,.29,1.5,2.93,2.93,0,0,0,.76,1,3,3,0,0,0,1.1.6,4.43,4.43,0,0,0,1.3.19,7.39,7.39,0,0,0,1.85-.22,6.86,6.86,0,0,0,1.56-.61,7.66,7.66,0,0,0,1.34-.93q.62-.54,1.23-1.16Z" transform="translate(-21.08 -58.63)"/><path class="cls-1" d="M144.93,70.66a10.75,10.75,0,0,1,.91-1.88,6,6,0,0,1,1.18-1.4,4.84,4.84,0,0,1,1.49-.88,5.26,5.26,0,0,1,1.83-.3,5.86,5.86,0,0,1,1.06.1,2.68,2.68,0,0,1,.92.34l-.14,1.14a.33.33,0,0,1-.33.28,2.57,2.57,0,0,1-.63-.12,4.21,4.21,0,0,0-1.12-.12,4.83,4.83,0,0,0-1.78.3,4.1,4.1,0,0,0-1.39.91,5.83,5.83,0,0,0-1.07,1.5,14.14,14.14,0,0,0-.84,2.05V83.75h-1.66V66.5h.88a.58.58,0,0,1,.42.12.7.7,0,0,1,.16.42Z" transform="translate(-21.08 -58.63)"/><path class="cls-1" d="M155.23,74.44v.33a11.69,11.69,0,0,0,.45,3.42A7,7,0,0,0,157,80.66a5.29,5.29,0,0,0,2,1.5,6.66,6.66,0,0,0,2.64.5,7.9,7.9,0,0,0,2.25-.29,8.49,8.49,0,0,0,1.6-.64,8.93,8.93,0,0,0,1-.64,1.16,1.16,0,0,1,.55-.29.4.4,0,0,1,.35.17l.45.55a4.71,4.71,0,0,1-1.1,1,7.86,7.86,0,0,1-1.53.77,11.22,11.22,0,0,1-1.8.51,9.94,9.94,0,0,1-1.93.19,8.21,8.21,0,0,1-3.23-.62,6.83,6.83,0,0,1-2.5-1.79,8.16,8.16,0,0,1-1.6-2.89,12.46,12.46,0,0,1-.56-3.91,10.67,10.67,0,0,1,.53-3.42,7.83,7.83,0,0,1,1.53-2.7,7,7,0,0,1,2.44-1.78,8,8,0,0,1,3.29-.64,7.18,7.18,0,0,1,2.71.5,6.13,6.13,0,0,1,2.17,1.46,6.92,6.92,0,0,1,1.45,2.37,9.12,9.12,0,0,1,.53,3.23.92.92,0,0,1-.1.52.41.41,0,0,1-.35.14Zm11.51-1.06a7.43,7.43,0,0,0-.39-2.49,5.28,5.28,0,0,0-1.1-1.86,4.79,4.79,0,0,0-1.69-1.17,5.57,5.57,0,0,0-2.16-.41,6.49,6.49,0,0,0-2.39.42,5.23,5.23,0,0,0-1.83,1.2,6,6,0,0,0-1.24,1.87,8.71,8.71,0,0,0-.62,2.44Z" transform="translate(-21.08 -58.63)"/><path class="cls-2" d="M199.91,78.62a.64.64,0,0,1,.49.22l1.34,1.44A10.65,10.65,0,0,1,198,83a12.67,12.67,0,0,1-5.26,1,12.29,12.29,0,0,1-4.85-.93,10.68,10.68,0,0,1-3.73-2.6,11.73,11.73,0,0,1-2.39-4,15,15,0,0,1-.85-5.15,14.48,14.48,0,0,1,.88-5.15,11.79,11.79,0,0,1,2.49-4,11.13,11.13,0,0,1,3.84-2.61,12.78,12.78,0,0,1,4.94-.93,12,12,0,0,1,4.68.85,11.79,11.79,0,0,1,3.57,2.31l-1.11,1.54a.9.9,0,0,1-.27.29.77.77,0,0,1-.44.11,1.38,1.38,0,0,1-.76-.34,11.56,11.56,0,0,0-1.18-.75,8.76,8.76,0,0,0-4.51-1.09,9,9,0,0,0-3.52.67,7.68,7.68,0,0,0-2.75,1.93A8.91,8.91,0,0,0,185,67.23a12.31,12.31,0,0,0-.64,4.11,12,12,0,0,0,.67,4.14,9.13,9.13,0,0,0,1.82,3.08,7.67,7.67,0,0,0,2.72,1.92,8.66,8.66,0,0,0,3.39.66,14,14,0,0,0,2-.13,8.22,8.22,0,0,0,1.65-.41,7,7,0,0,0,1.4-.7,10,10,0,0,0,1.29-1A.89.89,0,0,1,199.91,78.62Z" transform="translate(-21.08 -58.63)"/><path class="cls-2" d="M219.73,80.92v2.83h-14.1V58.9H209v22Z" transform="translate(-21.08 -58.63)"/><path class="cls-2" d="M245.23,71.34a14.35,14.35,0,0,1-.88,5.12,11.73,11.73,0,0,1-2.5,4A11.14,11.14,0,0,1,238,83.08a13.93,13.93,0,0,1-10,0,11.17,11.17,0,0,1-3.87-2.61,11.73,11.73,0,0,1-2.5-4,15.29,15.29,0,0,1,0-10.25,11.83,11.83,0,0,1,2.5-4A11.23,11.23,0,0,1,228,59.56a13.81,13.81,0,0,1,10,0,11.2,11.2,0,0,1,3.88,2.63,11.83,11.83,0,0,1,2.5,4A14.36,14.36,0,0,1,245.23,71.34Zm-3.45,0a12.63,12.63,0,0,0-.62-4.11,8.69,8.69,0,0,0-1.77-3.08,7.68,7.68,0,0,0-2.77-1.93,10.1,10.1,0,0,0-7.26,0,7.76,7.76,0,0,0-2.78,1.93,8.62,8.62,0,0,0-1.78,3.08,13.79,13.79,0,0,0,0,8.21,8.63,8.63,0,0,0,1.78,3.07,7.66,7.66,0,0,0,2.78,1.92,10.21,10.21,0,0,0,7.26,0,7.57,7.57,0,0,0,2.77-1.92,8.7,8.7,0,0,0,1.77-3.07A12.55,12.55,0,0,0,241.78,71.34Z" transform="translate(-21.08 -58.63)"/><path class="cls-2" d="M259.62,81.08a6.94,6.94,0,0,0,2.76-.52,5.78,5.78,0,0,0,2.05-1.46,6.37,6.37,0,0,0,1.28-2.24,8.83,8.83,0,0,0,.44-2.86V58.9h3.35V74a11.32,11.32,0,0,1-.69,4,9.25,9.25,0,0,1-2,3.18,9,9,0,0,1-3.11,2.11,11.54,11.54,0,0,1-8.25,0,9,9,0,0,1-3.12-2.11,9.18,9.18,0,0,1-2-3.18,11.32,11.32,0,0,1-.68-4V58.9h3.35V74a8.84,8.84,0,0,0,.44,2.86,6.38,6.38,0,0,0,1.28,2.24,5.85,5.85,0,0,0,2.06,1.46A6.9,6.9,0,0,0,259.62,81.08Z" transform="translate(-21.08 -58.63)"/><path class="cls-2" d="M297.07,71.34a14,14,0,0,1-.88,5.08,11.26,11.26,0,0,1-2.5,3.92,11.11,11.11,0,0,1-3.87,2.52,13.53,13.53,0,0,1-5,.89h-9.28V58.9h9.28a13.52,13.52,0,0,1,5,.89,11.05,11.05,0,0,1,3.88,2.53,11.36,11.36,0,0,1,2.5,3.93A14,14,0,0,1,297.07,71.34Zm-3.45,0a12.47,12.47,0,0,0-.62-4.09,8.63,8.63,0,0,0-1.77-3.05,7.54,7.54,0,0,0-2.77-1.91,9.64,9.64,0,0,0-3.64-.66H278.9V81h5.91a9.63,9.63,0,0,0,3.64-.66,7.59,7.59,0,0,0,2.77-1.9,8.53,8.53,0,0,0,1.77-3A12.48,12.48,0,0,0,293.62,71.34Z" transform="translate(-21.08 -58.63)"/></svg>